<?xml version="1.0" encoding="UTF-8" standalone="no"?>
<!DOCTYPE svg PUBLIC "-//W3C//DTD SVG 1.1//EN" "http://www.w3.org/Graphics/SVG/1.1/DTD/svg11.dtd">
<svg width="100%" height="100%" viewBox="0 0 512 512" version="1.1" xmlns="http://www.w3.org/2000/svg" xmlns:xlink="http://www.w3.org/1999/xlink" xml:space="preserve" style="fill-rule:evenodd;clip-rule:evenodd;stroke-linejoin:round;stroke-miterlimit:1.41421;">
    <circle id="Background" cx="256" cy="256" r="247" style="fill:rgb(29,29,29);"/>
    <g id="Colors_1_">
        <g transform="matrix(1,0,0,1,-5.03103,-26.2161)">
            <path d="M239.823,351.147C247.073,353.603 254.849,354.925 262.931,354.925C271.013,354.925 278.79,353.603 286.039,351.147L338.368,456.679C290.23,477.493 235.632,477.493 187.494,456.679L239.823,351.147Z" style="fill:rgb(216,151,98);"/>
        </g>
        <g transform="matrix(1,0,0,1,-5.03103,-26.2161)">
            <path d="M334.196,296.67L451.739,304.117C445.696,356.213 418.396,403.497 376.302,434.778L311.06,336.675C322.689,326.406 331.003,312.471 334.196,296.67Z" style="fill:rgb(72,166,235);"/>
        </g>
        <g transform="matrix(1,0,0,1,-5.03103,-26.2161)">
            <path d="M191.666,296.67C194.864,312.471 203.182,326.417 214.802,336.675L149.56,434.778C107.466,403.497 80.166,356.213 74.123,304.117L191.666,296.67Z" style="fill:rgb(145,193,126);"/>
        </g>
        <g transform="matrix(1,0,0,1,-5.03103,-26.2161)">
            <path d="M311.06,227.757L376.302,129.655C418.396,160.936 445.696,208.219 451.739,260.315L334.196,267.762C330.998,251.961 322.68,238.016 311.06,227.757Z" style="fill:rgb(156,107,205);"/>
        </g>
        <g transform="matrix(1,0,0,1,-5.03103,-26.2161)">
            <path d="M214.802,227.757C203.173,238.026 194.859,251.961 191.666,267.762L74.123,260.315C80.166,208.219 107.466,160.936 149.56,129.655L214.802,227.757Z" style="fill:rgb(133,191,194);"/>
        </g>
        <g transform="matrix(1,0,0,1,-5.03103,-26.2161)">
            <path d="M239.823,213.286L187.494,107.753C235.632,86.939 290.23,86.939 338.368,107.753L286.039,213.286C278.79,210.829 271.013,209.507 262.931,209.507C254.849,209.507 247.073,210.829 239.823,213.286Z" style="fill:rgb(236,188,105);"/>
        </g>
        <g transform="matrix(2.27918,0,0,2.27918,-398.28,-254.763)">
            <circle cx="287.901" cy="224.099" r="16.679" style="fill:rgb(235,235,235);"/>
        </g>
        <g transform="matrix(2.27918,0,0,2.27918,-398.28,-254.763)">
            <circle cx="287.901" cy="224.099" r="16.679" style="fill:rgb(193,181,154);"/>
        </g>
    </g>
</svg>
